<svg width="24" height="24" viewBox="0 0 24 24" fill="none" xmlns="http://www.w3.org/2000/svg">
<mask id="mask0_11_1096" style="mask-type:luminance" maskUnits="userSpaceOnUse" x="0" y="0" width="24" height="24">
<path d="M0 0H24V24H0V0Z" fill="white"/>
</mask>
<g mask="url(#mask0_11_1096)">
<path d="M18.6381 18.636C14.9704 22.3033 9.02389 22.3033 5.3562 18.636C1.68856 14.9687 1.68856 9.02273 5.3562 5.35541C9.02389 1.68806 14.9704 1.68806 18.6381 5.35541C22.3058 9.02273 22.3058 14.9687 18.6381 18.636Z" fill="#FECBAA"/>
<path d="M18.638 5.35538C18.051 4.76777 17.3886 4.26054 16.6683 3.84694C18.9956 7.48121 18.5713 12.3676 15.3942 15.5444C12.3284 18.61 7.67045 19.1123 4.08203 17.0528C4.44842 17.6249 4.87563 18.1557 5.35619 18.636C9.02383 22.3033 14.9703 22.3033 18.638 18.636C22.3057 14.9686 22.3057 9.02269 18.638 5.35538Z" fill="#FFAE85"/>
<path d="M22.8535 5.66453L20.5042 8.01367C20.3781 7.74236 20.2375 7.47719 20.0842 7.21666C19.7246 6.61053 19.298 6.04682 18.8122 5.53619C18.7549 5.47507 18.6965 5.41486 18.6373 5.35558C18.6138 5.33146 18.5898 5.3078 18.5653 5.28461C18.4814 5.20249 18.396 5.12191 18.3091 5.04292C17.8096 4.58818 17.2625 4.1887 16.6773 3.85141C16.4291 3.70911 16.1746 3.57826 15.9146 3.45925L18.2813 1.09277L22.8535 5.66453Z" fill="#4F7693"/>
<path d="M22.6333 7.53975L20.9666 9.2063C20.8401 8.79856 20.6857 8.40001 20.5045 8.01347C20.3776 7.74124 20.2374 7.47539 20.0844 7.21688L20.9745 6.32686C21.3578 5.94366 21.3578 5.32242 20.9745 4.93922L18.9761 2.94099C18.5929 2.55778 17.9715 2.55778 17.5883 2.94099L15.1588 5.37024C14.7623 5.76671 14.1194 5.76671 13.7229 5.37024C13.3264 4.97377 13.3264 4.33097 13.7229 3.93446L16.3753 1.28231C17.557 0.100737 19.4377 0.0442057 20.6868 1.11366C20.7493 1.1677 20.81 1.22397 20.8685 1.28236L22.6333 3.04697C22.6979 3.11153 22.7597 3.17889 22.8184 3.24886C23.8711 4.49677 23.809 6.36422 22.6333 7.53975Z" fill="#FF84A7"/>
<path d="M13.7226 5.10098L16.375 2.44884C17.5567 1.26726 19.4374 1.21073 20.6865 2.28019C20.749 2.33421 20.8096 2.39046 20.8681 2.44884L22.633 4.2135C22.6976 4.27804 22.7594 4.3454 22.818 4.41539C23.1714 4.83391 23.4098 5.33718 23.5097 5.87573C23.6787 4.9657 23.4485 3.99623 22.818 3.24881C22.7594 3.17885 22.6976 3.1115 22.633 3.04697L20.8681 1.28231C20.8096 1.22391 20.749 1.16765 20.6865 1.11365C19.4374 0.0441542 17.5567 0.100685 16.375 1.28226L13.7226 3.9344C13.3682 4.28878 13.3315 4.83942 13.6106 5.23561C13.644 5.18761 13.6815 5.14257 13.7226 5.10098Z" fill="#EF6085"/>
<path d="M21.0679 6.2161C21.0394 6.2552 21.0081 6.29215 20.9741 6.32663L20.084 7.2167C20.2304 7.46452 20.3652 7.71906 20.4878 7.97949L20.9741 7.49321C21.3225 7.14479 21.353 6.60024 21.0679 6.2161Z" fill="#EF6085"/>
<path d="M19.2416 5.10685L18.8155 5.53332C18.8146 5.53426 18.8132 5.5352 18.8123 5.53613C18.7549 5.47501 18.6966 5.41481 18.6373 5.35557C18.6138 5.33143 18.5898 5.30775 18.5653 5.28455C18.4814 5.20244 18.396 5.12188 18.3091 5.04291C18.3114 5.04005 18.3138 5.03724 18.3166 5.03443L18.7431 4.60843C18.7758 4.57568 18.8147 4.54969 18.8574 4.53196C18.9002 4.51423 18.946 4.50511 18.9923 4.50511C19.0386 4.50511 19.0845 4.51423 19.1272 4.53196C19.17 4.54969 19.2089 4.57568 19.2416 4.60843C19.3794 4.7462 19.3794 4.96951 19.2416 5.10685Z" fill="#2F5066"/>
<path d="M20.3102 4.27515L19.6582 3.62326C19.249 3.21404 19.249 2.55057 19.6582 2.14136L20.9373 0.862418C21.3464 0.45334 22.0099 0.45334 22.419 0.862418L23.071 1.5144C23.4802 1.92353 23.4802 2.587 23.071 2.99621L21.7919 4.27515C21.3828 4.68432 20.7194 4.68432 20.3102 4.27515Z" fill="#FECBAA"/>
<path d="M21.0226 3.56275L20.3706 2.91086C19.9614 2.50164 19.9614 1.83822 20.3706 1.429L20.9373 0.862469C21.3464 0.453344 22.0098 0.453344 22.4189 0.862469L23.0709 1.51441C23.4801 1.92353 23.4801 2.58705 23.0709 2.99622L22.5043 3.56275C22.0952 3.97192 21.4318 3.97192 21.0226 3.56275Z" fill="#C97F4C"/>
<path d="M8.08692 20.5412L5.72016 22.9072L1.14844 18.3359L3.49777 15.9863C3.62455 16.2587 3.76469 16.5247 3.91767 16.7833C4.27707 17.3894 4.70362 17.9532 5.18925 18.4638C5.26962 18.5495 5.35192 18.6334 5.43609 18.7153C5.52002 18.7975 5.60548 18.8781 5.69241 18.957C6.19201 19.4118 6.73926 19.8113 7.32464 20.1485C7.5727 20.2908 7.82705 20.4218 8.08692 20.5412Z" fill="#4F7693"/>
<path d="M1.36896 16.4605L3.03569 14.7939C3.16217 15.2016 3.31657 15.6002 3.49778 15.9867C3.62474 16.2589 3.76492 16.5248 3.91783 16.7833L3.02772 17.6734C2.64452 18.0565 2.64452 18.6778 3.02772 19.061L5.02619 21.0592C5.40939 21.4424 6.03072 21.4424 6.41397 21.0592L8.84345 18.6299C9.23997 18.2335 9.88286 18.2335 10.2793 18.6299C10.6758 19.0264 10.6758 19.6693 10.2793 20.0657L7.62696 22.7179C6.44528 23.8994 4.56457 23.956 3.31553 22.8865C3.25294 22.8325 3.19233 22.7763 3.1338 22.7179L1.36896 20.9532C1.30435 20.8887 1.24262 20.8213 1.18394 20.7514C0.131176 19.5034 0.193332 17.636 1.36896 16.4605Z" fill="#FF84A7"/>
<path d="M2.83137 18.7776L2.74297 18.866C2.35977 19.2492 2.35977 19.8704 2.74297 20.2536L4.74144 22.2519C5.12469 22.6351 5.74602 22.6351 6.12922 22.2519L8.55875 19.8226C8.95527 19.4261 9.59806 19.4261 9.99458 19.8226C10.0849 19.913 10.1572 20.0198 10.2077 20.1372L10.2794 20.0656C10.676 19.6691 10.676 19.0263 10.2794 18.6298C9.88292 18.2334 9.24003 18.2334 8.84352 18.6298L6.41403 21.0591C6.03078 21.4423 5.40945 21.4423 5.02625 21.0591L3.02773 19.0608C2.94603 18.9788 2.87955 18.8829 2.83137 18.7776Z" fill="#EF6085"/>
<path d="M1.08432 17.653L1.82012 16.9173C2.24345 16.494 2.95436 16.6252 3.20767 17.1676L3.21311 17.1792C3.24566 17.2491 3.27911 17.3185 3.31346 17.3875L3.91796 16.783C3.76505 16.5245 3.62487 16.2586 3.49792 15.9864C3.31673 15.5999 3.16233 15.2013 3.03582 14.7936L1.36909 16.4602C0.781043 17.0482 0.471668 17.8092 0.440918 18.5793C0.598278 18.2346 0.816197 17.9208 1.08432 17.653Z" fill="#EF6085"/>
<path d="M5.69259 18.9572C5.69022 18.9601 5.68772 18.963 5.68509 18.9657L5.25899 19.3917C5.22625 19.4245 5.18733 19.4506 5.14447 19.4683C5.10162 19.4861 5.05568 19.4952 5.00929 19.4951C4.96298 19.4951 4.91713 19.486 4.87436 19.4682C4.83159 19.4505 4.79274 19.4245 4.76006 19.3917C4.7273 19.359 4.70132 19.3201 4.68359 19.2773C4.66586 19.2346 4.65674 19.1887 4.65674 19.1425C4.65674 19.0962 4.66586 19.0503 4.68359 19.0076C4.70132 18.9648 4.7273 18.926 4.76006 18.8932L5.1861 18.4668C5.18709 18.4658 5.18845 18.4649 5.18943 18.464C5.26983 18.5496 5.35213 18.6335 5.43627 18.7155C5.52021 18.7976 5.60566 18.8782 5.69259 18.9572Z" fill="#2F5066"/>
<path d="M3.69197 19.7248L4.3439 20.3767C4.75317 20.7859 4.75317 21.4493 4.3439 21.8586L3.06487 23.1375C2.6557 23.5466 1.99233 23.5466 1.58315 23.1375L0.931217 22.4856C0.521951 22.0764 0.521951 21.4129 0.931217 21.0037L2.21025 19.7248C2.61942 19.3156 3.28279 19.3156 3.69197 19.7248Z" fill="#FECBAA"/>
<path d="M2.98806 20.4286L3.64004 21.0805C4.04926 21.4897 4.04926 22.1531 3.64004 22.5623L3.06488 23.1375C2.65567 23.5466 1.99234 23.5466 1.58312 23.1375L0.931182 22.4856C0.521963 22.0763 0.521963 21.4129 0.931182 21.0037L1.50638 20.4286C1.91551 20.0194 2.57888 20.0194 2.98806 20.4286Z" fill="#C97F4C"/>
<path d="M22.9082 18.279L18.3364 22.8508L15.9871 20.5017C16.2592 20.3744 16.525 20.2342 16.7837 20.0813C17.3902 19.7222 17.9541 19.2957 18.4648 18.8099C18.5257 18.7525 18.5858 18.6942 18.6449 18.635C18.6689 18.611 18.6928 18.5875 18.7164 18.5631C18.7985 18.4793 18.8789 18.3938 18.9576 18.3068C19.4124 17.8074 19.8119 17.2603 20.1492 16.6751C20.2915 16.427 20.4225 16.1725 20.5419 15.9125L22.9082 18.279Z" fill="#4F7693"/>
<path d="M16.4609 22.6302L14.7942 20.9636C15.202 20.8371 15.6006 20.6827 15.9872 20.5015C16.2594 20.3746 16.5253 20.2344 16.7838 20.0815L17.6739 20.9715C18.0572 21.3547 18.6785 21.3547 19.0616 20.9715L21.0602 18.9733C21.4434 18.5901 21.4434 17.9688 21.0602 17.5856L18.6306 15.1564C18.2341 14.7599 18.2341 14.1171 18.6306 13.7206C19.0271 13.3242 19.67 13.3242 20.0665 13.7206L22.7189 16.3728C23.9006 17.5544 23.9572 19.4349 22.8876 20.6838C22.8336 20.7464 22.7773 20.807 22.7189 20.8655L20.9541 22.6302C20.8895 22.6948 20.8222 22.7565 20.7522 22.8152C19.5042 23.8678 17.6365 23.8057 16.4609 22.6302Z" fill="#83D9FF"/>
<path d="M18.6307 14.9408C19.0272 14.5444 19.6701 14.5444 20.0666 14.9408L22.719 17.593C23.1668 18.0396 23.4704 18.6102 23.5904 19.2312C23.7863 18.2284 23.4958 17.1497 22.719 16.373L20.0666 13.7209C19.6701 13.3244 19.0272 13.3244 18.6307 13.7209C18.2683 14.0832 18.2382 14.6509 18.5384 15.0487C18.5666 15.0106 18.5975 14.9746 18.6307 14.9408Z" fill="#5FC9ED"/>
<path d="M15.7205 21.8405C16.3805 21.5369 17.1602 21.6777 17.6739 22.1914C18.0572 22.5746 18.6785 22.5746 19.0616 22.1914L21.0602 20.1931C21.4166 19.8367 21.441 19.2745 21.1343 18.8893C21.1112 18.9186 21.0864 18.9466 21.0602 18.9731L19.0616 20.9714C18.6785 21.3546 18.0572 21.3546 17.6739 20.9714L16.7838 20.0814C16.5252 20.2343 16.2594 20.3744 15.9871 20.5014C15.6005 20.6825 15.202 20.8369 14.7942 20.9634L15.6865 21.8557C15.6943 21.8525 15.7058 21.8473 15.7205 21.8405Z" fill="#5FC9ED"/>
<path d="M19.3926 19.2393C19.3264 19.3055 19.2366 19.3427 19.1429 19.3428C19.0966 19.3428 19.0508 19.3337 19.008 19.3159C18.9652 19.2981 18.9264 19.2721 18.8937 19.2393L18.4677 18.8133C18.4667 18.8124 18.4658 18.811 18.4648 18.81C18.5258 18.7527 18.5858 18.6944 18.6449 18.6351C18.669 18.6111 18.6929 18.5877 18.7164 18.5632C18.7985 18.4794 18.879 18.3939 18.9577 18.3069C18.9605 18.3093 18.9633 18.3116 18.9661 18.3145L19.3926 18.7404C19.53 18.8782 19.53 19.1016 19.3926 19.2393Z" fill="#2F5066"/>
<path d="M19.7256 20.3074L20.3776 19.6555C20.7868 19.2463 21.4501 19.2463 21.8593 19.6555L23.1383 20.9344C23.5476 21.3435 23.5476 22.0071 23.1383 22.4162L22.4864 23.0681C22.0772 23.4773 21.4139 23.4773 21.0046 23.0681L19.7256 21.7892C19.3164 21.38 19.3164 20.7165 19.7256 20.3074Z" fill="#FECBAA"/>
<path d="M20.4377 21.0195L21.0897 20.3676C21.4989 19.9584 22.1623 19.9584 22.5714 20.3676L23.1383 20.9344C23.5475 21.3435 23.5475 22.007 23.1383 22.4162L22.4863 23.0681C22.0771 23.4773 21.4138 23.4773 21.0046 23.0681L20.4377 22.5014C20.0286 22.0922 20.0286 21.4287 20.4377 21.0195Z" fill="#C97F4C"/>
<path d="M8.01312 3.49629C7.74088 3.62332 7.47503 3.76362 7.21652 3.91667C6.61 4.27574 6.04604 4.70226 5.5354 5.18811C5.47413 5.2453 5.41392 5.3036 5.35479 5.363C5.33079 5.387 5.3073 5.41048 5.28377 5.4349C5.20178 5.519 5.12136 5.60461 5.04255 5.69168C4.58759 6.19087 4.18791 6.73777 3.85047 7.32284C3.70816 7.57092 3.57728 7.82539 3.45827 8.08545L1.09155 5.71897L5.66374 1.14715L8.01312 3.49629Z" fill="#4F7693"/>
<path d="M7.53952 1.36807L9.20625 3.03462C8.79848 3.16112 8.39988 3.31549 8.01328 3.49666C7.74105 3.62361 7.47519 3.7638 7.21664 3.91671L6.32649 3.02665C5.94328 2.64349 5.32196 2.64349 4.9388 3.02665L2.94028 5.02497C2.55708 5.40813 2.55708 6.02937 2.94028 6.41257L5.36981 8.84186C5.76628 9.23833 5.76628 9.88113 5.36981 10.2776C4.9733 10.6741 4.33041 10.6741 3.93389 10.2776L1.28152 7.62546C0.0998001 6.44388 0.0432689 4.56335 1.11282 3.31446C1.16683 3.25186 1.2231 3.19124 1.28152 3.13272L3.04636 1.36807C3.1109 1.30346 3.17824 1.24173 3.24821 1.18305C4.49625 0.130427 6.36389 0.192536 7.53952 1.36807Z" fill="#83D9FF"/>
<path d="M2.93989 6.41246C2.90073 6.37283 2.86499 6.32996 2.83306 6.28431C2.56189 6.66732 2.59685 7.20067 2.93989 7.54374L5.36942 9.97299C5.41587 10.0196 5.45771 10.0706 5.49434 10.1252C5.75984 9.73051 5.71845 9.19079 5.36942 8.84176L2.93989 6.41246Z" fill="#5FC9ED"/>
<path d="M1.11278 4.44565C1.16681 4.38306 1.22308 4.32244 1.28148 4.26392L3.04628 2.49926C3.11084 2.43467 3.1782 2.37294 3.24817 2.31424C4.49622 1.26157 6.36381 1.32373 7.53948 2.49926L8.37644 3.33612C8.6481 3.22254 8.92498 3.1219 9.20617 3.03453L7.53948 1.36798C6.36381 0.192495 4.49622 0.130339 3.24817 1.18296C3.1782 1.24167 3.11084 1.30342 3.04628 1.36803L1.28148 3.13268C1.22305 3.19118 1.16678 3.2518 1.11278 3.31442C0.473734 4.06057 0.237015 5.0322 0.401781 5.94556C0.498765 5.40593 0.735296 4.88642 1.11278 4.44565Z" fill="#5FC9ED"/>
<path d="M5.53551 5.18807C5.47425 5.24528 5.41404 5.30358 5.3549 5.36296C5.33094 5.38696 5.30746 5.41045 5.28393 5.43492C5.2019 5.51897 5.12146 5.60456 5.04266 5.69165C5.03938 5.68931 5.03652 5.68649 5.03376 5.68363L4.60771 5.25763C4.57495 5.22488 4.54897 5.186 4.53125 5.1432C4.51352 5.1004 4.50439 5.05453 4.50439 5.00821C4.50439 4.96189 4.51352 4.91602 4.53125 4.87323C4.54897 4.83043 4.57495 4.79155 4.60771 4.75879C4.64047 4.72602 4.67936 4.70003 4.72216 4.68229C4.76497 4.66456 4.81084 4.65543 4.85718 4.65543C4.90351 4.65543 4.94939 4.66456 4.99219 4.68229C5.035 4.70003 5.07389 4.72602 5.10665 4.75879L5.53265 5.18479C5.53363 5.18568 5.53452 5.18709 5.53551 5.18807Z" fill="#2F5066"/>
<path d="M4.27409 3.69064L3.62215 4.34254C3.21294 4.75171 2.54961 4.75171 2.14039 4.34254L0.861357 3.0636C0.452139 2.65443 0.452139 1.99091 0.861357 1.58178L1.51334 0.929847C1.92251 0.520722 2.58584 0.520722 2.99506 0.929847L4.27409 2.20879C4.68331 2.61796 4.68331 3.28147 4.27409 3.69064Z" fill="#FECBAA"/>
<path d="M3.45499 2.87155L2.803 3.52344C2.39383 3.93262 1.73046 3.93262 1.32128 3.52344L0.861393 3.0636C0.452127 2.65438 0.452127 1.99091 0.861393 1.58174L1.51333 0.929803C1.92255 0.520725 2.58588 0.520725 2.99505 0.929803L3.45499 1.38969C3.86416 1.79887 3.86416 2.46238 3.45499 2.87155Z" fill="#C97F4C"/>
<path d="M9.77332 16.0707L8.04795 17.6003C7.98669 17.6544 7.90643 17.6821 7.82479 17.6772C7.74315 17.6722 7.6668 17.6351 7.61253 17.5739L6.93063 16.8046L6.46278 16.2771L5.74423 15.4665C5.69005 15.4053 5.66238 15.3251 5.66731 15.2435C5.67224 15.162 5.70937 15.0857 5.77053 15.0315L7.49637 13.5019C7.52666 13.4751 7.56193 13.4545 7.60019 13.4413C7.63844 13.4281 7.67891 13.4226 7.7193 13.425C7.75969 13.4275 7.7992 13.4378 7.83558 13.4556C7.87196 13.4733 7.90449 13.498 7.93132 13.5283L8.63576 14.3224L9.10371 14.8505L9.79967 15.6353C9.85387 15.6965 9.88154 15.7768 9.8766 15.8584C9.87166 15.9401 9.83452 16.0164 9.77332 16.0707Z" fill="white"/>
<path d="M18.3632 9.09165L15.888 11.2856C15.8524 11.3171 15.8109 11.3414 15.766 11.3569C15.7211 11.3724 15.6735 11.3789 15.626 11.3761C15.5786 11.3732 15.5321 11.361 15.4894 11.3402C15.4466 11.3194 15.4084 11.2904 15.3768 11.2548L13.5802 9.22811C13.5486 9.19252 13.5244 9.15108 13.5089 9.10613C13.4933 9.06118 13.4868 9.01362 13.4897 8.96615C13.4925 8.91868 13.5047 8.87224 13.5255 8.82948C13.5463 8.78672 13.5753 8.74847 13.6109 8.71693L16.0862 6.523C16.158 6.45931 16.2522 6.42678 16.3481 6.43255C16.4439 6.43831 16.5336 6.48191 16.5973 6.55375L18.394 8.58048C18.4255 8.61606 18.4497 8.65751 18.4653 8.70245C18.4808 8.7474 18.4873 8.79497 18.4845 8.84244C18.4816 8.8899 18.4694 8.93634 18.4486 8.97911C18.4278 9.02187 18.3988 9.06011 18.3632 9.09165Z" fill="white"/>
<path d="M9.10383 14.8506L6.93267 16.8033C6.9322 16.8038 6.93122 16.8043 6.9308 16.8047L6.46289 16.2772L8.63358 14.3243C8.63447 14.3239 8.63494 14.323 8.63592 14.3225L9.10383 14.8506Z" fill="#DAE2E8"/>
</g>
</svg>
