<svg width="24" height="26" viewBox="0 0 24 26" fill="none" xmlns="http://www.w3.org/2000/svg">
<path d="M11.9793 1.07568C5.36328 1.07568 0 6.43897 0 13.0549C0 16.0054 1.06728 18.7061 2.8359 20.7936L6.70305 23.8118C8.29502 24.5941 10.0857 25.0342 11.9793 25.0342C13.7529 25.0342 15.4364 24.6483 16.9507 23.9566C15.6068 23.2564 14.6864 21.8508 14.6864 20.2335C14.6864 17.9198 16.5687 16.0375 18.8824 16.0375C20.5576 16.0375 22.0061 17.0247 22.6782 18.4476C23.4968 16.8267 23.9585 14.9948 23.9585 13.0549C23.9585 6.43897 18.5952 1.07568 11.9793 1.07568Z" fill="#FFBD86"/>
<path d="M14.6865 20.2334C14.6865 17.9198 16.5688 16.0374 18.8825 16.0374C19.7059 16.0374 20.4739 16.2768 21.1226 16.6881V1.27118C21.1226 1.00113 20.9037 0.782227 20.6337 0.782227H15.8909V2.15128C15.8909 2.25915 15.8032 2.34686 15.6953 2.34686H8.26327C8.15541 2.34686 8.06769 2.25915 8.06769 2.15128V0.782227H3.32489C3.05484 0.782227 2.83594 1.00113 2.83594 1.27118V20.7935C3.89823 22.0473 5.21345 23.0796 6.70313 23.8117H16.6938C15.4908 23.0732 14.6865 21.7456 14.6865 20.2334Z" fill="#22B27F"/>
<path d="M5.39925 1.27118C5.39925 1.00113 5.61816 0.782227 5.8882 0.782227H3.32489C3.05484 0.782227 2.83594 1.00113 2.83594 1.27118V20.7935C3.57778 21.669 4.44095 22.434 5.39925 23.0652V1.27118Z" fill="#09A76D"/>
<path d="M14.6865 20.2335C14.6865 17.9199 16.5688 16.0376 18.8824 16.0376C19.1419 16.0378 19.4008 16.0622 19.6557 16.1102V1.90694C19.6557 1.86804 19.6403 1.83073 19.6128 1.80322C19.5853 1.77571 19.548 1.76025 19.5091 1.76025H15.8908V2.15141C15.8908 2.25928 15.8031 2.34699 15.6953 2.34699H8.26322C8.15536 2.34699 8.06764 2.25928 8.06764 2.15141V1.76025H4.44942C4.41052 1.76025 4.37321 1.77571 4.3457 1.80322C4.31819 1.83073 4.30273 1.86804 4.30273 1.90694V21.7094C4.30273 21.7483 4.31819 21.7856 4.3457 21.8131C4.37321 21.8406 4.41052 21.8561 4.44942 21.8561H15.013C14.797 21.3424 14.6859 20.7908 14.6865 20.2335Z" fill="white"/>
<path d="M6.27931 21.7094V1.90694C6.27931 1.86804 6.29477 1.83073 6.32227 1.80322C6.34978 1.77571 6.38709 1.76025 6.426 1.76025H4.44942C4.41052 1.76025 4.37321 1.77571 4.3457 1.80322C4.31819 1.83073 4.30273 1.86804 4.30273 1.90694V21.7094C4.30273 21.7483 4.31819 21.7856 4.3457 21.8131C4.37321 21.8406 4.41052 21.8561 4.44942 21.8561H6.426C6.38709 21.8561 6.34978 21.8406 6.32227 21.8131C6.29477 21.7856 6.27931 21.7483 6.27931 21.7094Z" fill="#F8F6F6"/>
<path d="M14.4484 2.34692V2.74297H13.4366C13.1647 2.74297 12.9291 2.91948 12.8505 3.18215C12.7362 3.56362 12.3779 3.83005 11.9792 3.83005C11.5805 3.83005 11.2222 3.56362 11.108 3.1822C11.0293 2.91948 10.7938 2.74297 10.5218 2.74297H9.51004V2.34692H8.77661V2.86521C8.77661 3.20224 9.05077 3.4764 9.3878 3.4764H10.433C10.6651 4.12068 11.2886 4.56348 11.9792 4.56348C12.6699 4.56348 13.2933 4.12068 13.5255 3.4764H14.5707C14.9077 3.4764 15.1818 3.20224 15.1818 2.86521V2.34692H14.4484Z" fill="#9C9C9C"/>
<path d="M8.12273 8.45274C8.96326 8.45274 9.64464 7.77136 9.64464 6.93084C9.64464 6.09031 8.96326 5.40894 8.12273 5.40894C7.28221 5.40894 6.60083 6.09031 6.60083 6.93084C6.60083 7.77136 7.28221 8.45274 8.12273 8.45274Z" fill="#26A6FE"/>
<path d="M7.59951 6.93084C7.59951 6.26528 8.0269 5.69991 8.62205 5.49318C8.46149 5.43737 8.29271 5.40889 8.12273 5.40894C7.28223 5.40894 6.60083 6.09029 6.60083 6.93084C6.60083 7.77134 7.28218 8.45274 8.12273 8.45274C8.29768 8.45274 8.46558 8.42282 8.62205 8.3685C8.0269 8.16177 7.59951 7.59635 7.59951 6.93084Z" fill="#0593FC"/>
<path d="M8.01984 7.75306C7.97168 7.75312 7.92398 7.74367 7.87948 7.72524C7.83498 7.70681 7.79456 7.67978 7.76055 7.64568L7.13132 7.0165C7.06256 6.94773 7.02393 6.85446 7.02393 6.75721C7.02393 6.65996 7.06256 6.56669 7.13132 6.49792C7.20008 6.42915 7.29335 6.39052 7.3906 6.39051C7.48785 6.3905 7.58112 6.42912 7.6499 6.49788L8.01979 6.86777L8.59553 6.29203C8.66469 6.22517 8.75736 6.18816 8.85355 6.18898C8.94974 6.1898 9.04176 6.22837 9.10978 6.2964C9.1778 6.36442 9.21637 6.45645 9.21718 6.55264C9.21799 6.64884 9.18097 6.7415 9.11411 6.81066L8.27908 7.64568C8.24508 7.67978 8.20467 7.70683 8.16018 7.72525C8.11569 7.74368 8.06799 7.75313 8.01984 7.75306Z" fill="white"/>
<path d="M17.3576 6.56399H10.9524C10.7499 6.56399 10.5857 6.39985 10.5857 6.19728C10.5857 5.99471 10.7499 5.83057 10.9524 5.83057H17.3576C17.5602 5.83057 17.7244 5.99471 17.7244 6.19728C17.7244 6.39985 17.5602 6.56399 17.3576 6.56399ZM15.2552 8.03084H10.9524C10.7499 8.03084 10.5857 7.8667 10.5857 7.66413C10.5857 7.46155 10.7499 7.29741 10.9524 7.29741H15.2552C15.4577 7.29741 15.6219 7.46155 15.6219 7.66413C15.6219 7.8667 15.4577 8.03084 15.2552 8.03084Z" fill="#9C9C9C"/>
<path d="M8.12273 12.3338C8.96326 12.3338 9.64464 11.6525 9.64464 10.8119C9.64464 9.97142 8.96326 9.29004 8.12273 9.29004C7.28221 9.29004 6.60083 9.97142 6.60083 10.8119C6.60083 11.6525 7.28221 12.3338 8.12273 12.3338Z" fill="#26A6FE"/>
<path d="M7.59951 10.8119C7.59951 10.1464 8.0269 9.58101 8.62205 9.37429C8.46149 9.31847 8.29271 9.28999 8.12273 9.29004C7.28223 9.29004 6.60083 9.97139 6.60083 10.8119C6.60083 11.6524 7.28218 12.3338 8.12273 12.3338C8.29768 12.3338 8.46558 12.3039 8.62205 12.2496C8.0269 12.0429 7.59951 11.4775 7.59951 10.8119Z" fill="#0593FC"/>
<path d="M8.01984 11.6343C7.97168 11.6343 7.92398 11.6249 7.87948 11.6064C7.83499 11.588 7.79457 11.561 7.76055 11.5269L7.13132 10.8977C7.06256 10.8289 7.02393 10.7357 7.02393 10.6384C7.02393 10.5412 7.06256 10.4479 7.13132 10.3791C7.20008 10.3104 7.29335 10.2717 7.3906 10.2717C7.48785 10.2717 7.58112 10.3103 7.6499 10.3791L8.01979 10.749L8.59553 10.1733C8.6643 10.1045 8.75757 10.0659 8.85483 10.0659C8.95208 10.0659 9.04534 10.1046 9.11411 10.1733C9.18287 10.2421 9.2215 10.3354 9.2215 10.4326C9.2215 10.5299 9.18287 10.6231 9.11411 10.6919L8.27908 11.5269C8.24507 11.561 8.20467 11.588 8.16018 11.6065C8.11569 11.6249 8.06799 11.6343 8.01984 11.6343Z" fill="white"/>
<path d="M17.3576 10.4453H10.9524C10.7499 10.4453 10.5857 10.2812 10.5857 10.0786C10.5857 9.87605 10.7499 9.71191 10.9524 9.71191H17.3576C17.5602 9.71191 17.7244 9.87605 17.7244 10.0786C17.7244 10.2812 17.5602 10.4453 17.3576 10.4453ZM15.2552 11.9122H10.9524C10.7499 11.9122 10.5857 11.748 10.5857 11.5455C10.5857 11.3429 10.7499 11.1788 10.9524 11.1788H15.2552C15.4577 11.1788 15.6219 11.3429 15.6219 11.5455C15.6219 11.748 15.4577 11.9122 15.2552 11.9122Z" fill="#9C9C9C"/>
<path d="M8.12273 16.2149C8.96326 16.2149 9.64464 15.5336 9.64464 14.693C9.64464 13.8525 8.96326 13.1711 8.12273 13.1711C7.28221 13.1711 6.60083 13.8525 6.60083 14.693C6.60083 15.5336 7.28221 16.2149 8.12273 16.2149Z" fill="#26A6FE"/>
<path d="M7.59951 14.693C7.59951 14.0275 8.0269 13.4621 8.62205 13.2554C8.46149 13.1996 8.29271 13.1711 8.12273 13.1711C7.28223 13.1711 6.60083 13.8525 6.60083 14.693C6.60083 15.5335 7.28218 16.2149 8.12273 16.2149C8.29768 16.2149 8.46558 16.185 8.62205 16.1307C8.0269 15.924 7.59951 15.3586 7.59951 14.693Z" fill="#0593FC"/>
<path d="M8.01984 15.5154C7.97168 15.5154 7.92398 15.506 7.87948 15.4875C7.83499 15.4691 7.79457 15.4421 7.76055 15.408L7.13132 14.7788C7.06256 14.71 7.02393 14.6168 7.02393 14.5195C7.02393 14.4223 7.06256 14.329 7.13132 14.2602C7.20008 14.1915 7.29335 14.1528 7.3906 14.1528C7.48785 14.1528 7.58112 14.1914 7.6499 14.2602L8.01979 14.6301L8.59553 14.0544C8.6643 13.9856 8.75757 13.947 8.85483 13.947C8.95208 13.947 9.04534 13.9857 9.11411 14.0544C9.18287 14.1232 9.2215 14.2165 9.2215 14.3137C9.2215 14.411 9.18287 14.5042 9.11411 14.573L8.27908 15.408C8.24507 15.4421 8.20467 15.4691 8.16018 15.4876C8.11569 15.506 8.06799 15.5154 8.01984 15.5154Z" fill="white"/>
<path d="M16.5972 13.593H10.9524C10.7499 13.593 10.5857 13.7572 10.5857 13.9597C10.5857 14.1623 10.7499 14.3264 10.9524 14.3264H16.4471L16.5972 13.593Z" fill="#9C9C9C"/>
<path d="M16.7052 13.2524L16.6159 13.2574L16.1371 15.5973C16.121 15.6759 16.2142 15.7297 16.2742 15.6765L18.0612 14.0918L18.0224 14.013L16.7052 13.2524Z" fill="#FFE5C2"/>
<path d="M17.2576 13.5714L16.7052 13.2524L16.6159 13.2574L16.1371 15.5973C16.121 15.6759 16.2142 15.7297 16.2742 15.6765L16.9493 15.0778L17.2576 13.5714Z" fill="#FED2A4"/>
<path d="M13.7883 15.7932H10.9524C10.7499 15.7932 10.5857 15.6291 10.5857 15.4265C10.5857 15.224 10.7499 15.0598 10.9524 15.0598H13.7883C13.9908 15.0598 14.155 15.224 14.155 15.4265C14.155 15.6291 13.9908 15.7932 13.7883 15.7932Z" fill="#9C9C9C"/>
<path d="M8.12273 20.0961C8.96326 20.0961 9.64464 19.4147 9.64464 18.5741C9.64464 17.7336 8.96326 17.0522 8.12273 17.0522C7.28221 17.0522 6.60083 17.7336 6.60083 18.5741C6.60083 19.4147 7.28221 20.0961 8.12273 20.0961Z" fill="#D8ECFE"/>
<path d="M7.59951 18.5741C7.59951 17.9086 8.0269 17.3432 8.62205 17.1365C8.46149 17.0807 8.29271 17.0522 8.12273 17.0522C7.28223 17.0522 6.60083 17.7336 6.60083 18.5741C6.60083 19.4147 7.28218 20.096 8.12273 20.096C8.29768 20.096 8.46558 20.0661 8.62205 20.0118C8.0269 19.8051 7.59951 19.2397 7.59951 18.5741Z" fill="#B3DAFE"/>
<path d="M15.7254 17.4741H10.9524C10.7499 17.4741 10.5857 17.6383 10.5857 17.8408C10.5857 18.0434 10.7499 18.2075 10.9524 18.2075H15.2094C15.3549 17.9454 15.5278 17.6995 15.7254 17.4741ZM13.7883 19.6744H10.9524C10.7499 19.6744 10.5857 19.5103 10.5857 19.3077C10.5857 19.1051 10.7499 18.941 10.9524 18.941H13.7883C13.9908 18.941 14.155 19.1051 14.155 19.3077C14.155 19.5103 13.9908 19.6744 13.7883 19.6744Z" fill="#9C9C9C"/>
<path d="M15.6953 2.39585H8.26327C8.19843 2.39585 8.13625 2.37009 8.0904 2.32425C8.04456 2.2784 8.0188 2.21622 8.0188 2.15138V0.244475C8.0188 0.179636 8.04456 0.117453 8.0904 0.071605C8.13625 0.0257571 8.19843 0 8.26327 0L15.6953 0C15.7601 0 15.8223 0.0257571 15.8682 0.071605C15.914 0.117453 15.9398 0.179636 15.9398 0.244475V2.15138C15.9398 2.21622 15.914 2.2784 15.8682 2.32425C15.8223 2.37009 15.7601 2.39585 15.6953 2.39585Z" fill="#0182FC"/>
<path d="M10.7288 1.41795C10.664 1.41795 10.6018 1.3922 10.5559 1.34635C10.5101 1.3005 10.4843 1.23832 10.4843 1.17348V0H8.26327C8.19843 0 8.13625 0.0257571 8.0904 0.071605C8.04456 0.117453 8.0188 0.179636 8.0188 0.244475V2.15138C8.0188 2.21622 8.04456 2.2784 8.0904 2.32425C8.13625 2.37009 8.19843 2.39585 8.26327 2.39585H15.6953C15.7601 2.39585 15.8223 2.37009 15.8682 2.32425C15.914 2.2784 15.9398 2.21622 15.9398 2.15138V1.41795H10.7288Z" fill="#0172FB"/>
<path d="M23.7913 3.33273L23.0686 2.91551C22.9728 2.86019 22.8589 2.8452 22.752 2.87383C22.6451 2.90247 22.554 2.97239 22.4987 3.06821L21.5391 4.7303L21.5833 4.80398L22.884 5.55496L22.9843 5.56474L23.944 3.90265C23.9714 3.85521 23.9891 3.80283 23.9963 3.74851C24.0035 3.69419 23.9998 3.63899 23.9857 3.58607C23.9715 3.53314 23.947 3.48353 23.9137 3.44006C23.8803 3.3966 23.8387 3.36013 23.7913 3.33273Z" fill="#9C9C9C"/>
<path d="M17.0412 14.9964L16.3426 14.593L16.1371 15.5973C16.121 15.6758 16.2142 15.7296 16.2742 15.6764L17.0412 14.9964Z" fill="#5A5A5A"/>
<path d="M21.5387 4.73022L22.9839 5.56471L18.0607 14.0916L16.6155 13.2572L21.5387 4.73022Z" fill="#FAC600"/>
<path d="M22.8211 3.98705C22.8485 3.9396 22.885 3.898 22.9285 3.86465C22.9719 3.83129 23.0215 3.80683 23.0745 3.79265C23.1274 3.77847 23.1826 3.77485 23.2369 3.78201C23.2912 3.78916 23.3436 3.80695 23.3911 3.83435L23.8353 4.09085L23.944 3.90265C23.9993 3.80683 24.0143 3.69295 23.9856 3.58607C23.957 3.47919 23.8871 3.38806 23.7913 3.33274L23.0686 2.91551C22.9728 2.86019 22.8589 2.8452 22.752 2.87383C22.6451 2.90247 22.554 2.97239 22.4987 3.06821L21.5391 4.7303L21.5833 4.80398L22.1579 5.13574L22.8211 3.98705Z" fill="#838383"/>
<path d="M21.8616 5.64911L22.6672 6.1142L22.9844 5.56467L21.5391 4.73022L16.616 13.2575L17.2557 13.6268L21.8616 5.64911Z" fill="#E8B800"/>
<path d="M18.8823 24.4785C21.2267 24.4785 23.1272 22.578 23.1272 20.2336C23.1272 17.8893 21.2267 15.9888 18.8823 15.9888C16.5379 15.9888 14.6375 17.8893 14.6375 20.2336C14.6375 22.578 16.5379 24.4785 18.8823 24.4785Z" fill="#0182FC"/>
<path d="M16.5471 20.2336C16.5471 18.2176 17.9526 16.5298 19.8372 16.0966C19.524 16.0248 19.2037 15.9886 18.8823 15.9888C16.5379 15.9888 14.6375 17.8893 14.6375 20.2336C14.6375 22.578 16.5379 24.4785 18.8823 24.4785C19.2106 24.4785 19.5303 24.4412 19.8372 24.3706C17.9526 23.9374 16.5471 22.2497 16.5471 20.2336Z" fill="#0172FB"/>
<path d="M20.8521 19.4656H19.7797C19.7454 19.4656 19.7125 19.452 19.6882 19.4277C19.664 19.4035 19.6504 19.3706 19.6504 19.3363V18.2638C19.6504 18.2295 19.6367 18.1967 19.6125 18.1724C19.5882 18.1481 19.5553 18.1345 19.521 18.1345H18.2438C18.2095 18.1345 18.1766 18.1481 18.1524 18.1724C18.1281 18.1967 18.1145 18.2295 18.1145 18.2638V19.3363C18.1145 19.3706 18.1009 19.4035 18.0766 19.4277C18.0524 19.452 18.0195 19.4656 17.9852 19.4656H16.9128C16.8785 19.4656 16.8456 19.4792 16.8213 19.5035C16.7971 19.5277 16.7834 19.5606 16.7834 19.5949V20.8721C16.7834 20.9064 16.7971 20.9393 16.8213 20.9635C16.8456 20.9878 16.8785 21.0014 16.9128 21.0014H17.9852C18.0195 21.0014 18.0524 21.0151 18.0766 21.0393C18.1009 21.0636 18.1145 21.0965 18.1145 21.1308V22.2032C18.1145 22.2375 18.1281 22.2704 18.1524 22.2946C18.1766 22.3189 18.2095 22.3325 18.2438 22.3325H19.521C19.5553 22.3325 19.5882 22.3189 19.6125 22.2946C19.6367 22.2704 19.6504 22.2375 19.6504 22.2032V21.1308C19.6504 21.0965 19.664 21.0636 19.6882 21.0393C19.7125 21.0151 19.7454 21.0014 19.7797 21.0014H20.8521C20.8864 21.0014 20.9193 20.9878 20.9435 20.9635C20.9678 20.9393 20.9814 20.9064 20.9814 20.8721V19.5949C20.9814 19.5606 20.9678 19.5277 20.9435 19.5035C20.9193 19.4792 20.8864 19.4656 20.8521 19.4656Z" fill="white"/>
<path d="M19.0415 21.8072C19.0072 21.8072 18.9743 21.7935 18.9501 21.7693C18.9258 21.745 18.9122 21.7121 18.9122 21.6778V20.6054C18.9122 20.5711 18.8986 20.5382 18.8743 20.514C18.8501 20.4897 18.8172 20.4761 18.7829 20.4761H17.7104C17.6761 20.4761 17.6433 20.4625 17.619 20.4382C17.5947 20.414 17.5811 20.3811 17.5811 20.3468V19.4656H16.9128C16.8785 19.4656 16.8456 19.4792 16.8213 19.5035C16.7971 19.5277 16.7834 19.5606 16.7834 19.5949V20.8721C16.7834 20.9064 16.7971 20.9393 16.8213 20.9635C16.8456 20.9878 16.8785 21.0014 16.9128 21.0014H17.9852C18.0195 21.0014 18.0524 21.015 18.0766 21.0393C18.1009 21.0635 18.1145 21.0964 18.1145 21.1307V22.2032C18.1145 22.2375 18.1281 22.2703 18.1524 22.2946C18.1766 22.3189 18.2095 22.3325 18.2438 22.3325H19.521C19.5553 22.3325 19.5882 22.3189 19.6125 22.2946C19.6367 22.2703 19.6504 22.2375 19.6504 22.2032V21.8072H19.0415Z" fill="#F8F6F6"/>
</svg>
