<svg width="28" height="28" viewBox="0 0 28 28" fill="none" xmlns="http://www.w3.org/2000/svg">
<g clip-path="url(#clip0_10_688)">
<path d="M24.5219 19.5038H7.16211C6.95828 19.5038 6.75918 19.4423 6.59088 19.3274C6.42257 19.2124 6.2929 19.0493 6.21884 18.8594L4.46198 14.369C4.43174 14.2922 4.42072 14.2093 4.4299 14.1273C4.43907 14.0454 4.46815 13.9669 4.51461 13.8987C4.56107 13.8306 4.6235 13.7749 4.69644 13.7364C4.76939 13.6979 4.85064 13.6779 4.93311 13.678H26.752C26.8344 13.6779 26.9157 13.698 26.9886 13.7365C27.0616 13.775 27.124 13.8307 27.1705 13.8988C27.2171 13.9669 27.2463 14.0453 27.2556 14.1272C27.2649 14.2092 27.2541 14.2922 27.2241 14.369L25.4672 18.8594C25.3927 19.0494 25.2626 19.2125 25.094 19.3274C24.9254 19.4424 24.726 19.5038 24.5219 19.5038Z" fill="#607D8B"/>
<path d="M15.8422 7.34544C14.0265 7.34544 12.5493 5.86822 12.5493 4.0526C12.5493 2.23698 14.0265 0.759766 15.8422 0.759766C17.6578 0.759766 19.135 2.23698 19.135 4.0526C19.135 5.86822 17.6578 7.34544 15.8422 7.34544Z" fill="#2196F3"/>
<path d="M19.8949 24.3163H11.7894L10.6253 17.5634C10.6127 17.4906 10.6162 17.416 10.6356 17.3448C10.6549 17.2735 10.6896 17.2073 10.7371 17.1508C10.7847 17.0944 10.8441 17.049 10.911 17.0179C10.978 16.9868 11.051 16.9707 11.1248 16.9707H20.5605C20.6344 16.9707 20.7073 16.9868 20.7743 17.0179C20.8413 17.049 20.9006 17.0944 20.9482 17.1508C20.9958 17.2073 21.0305 17.2735 21.0498 17.3448C21.0691 17.416 21.0726 17.4906 21.06 17.5634L19.8949 24.3163Z" fill="#90A4AE"/>
<path d="M23.4409 13.6778H8.24316C8.24316 12.6702 8.64346 11.7038 9.35599 10.9912C10.0685 10.2787 11.0349 9.87842 12.0426 9.87842H19.6414C20.6491 9.87842 21.6155 10.2787 22.328 10.9912C23.0406 11.7038 23.4409 12.6702 23.4409 13.6778Z" fill="#2196F3"/>
<path d="M25.214 20.2637H20.9789C20.7774 20.2637 20.5841 20.1836 20.4416 20.0411C20.2991 19.8986 20.219 19.7053 20.219 19.5038C20.219 19.3022 20.2991 19.109 20.4416 18.9664C20.5841 18.8239 20.7774 18.7439 20.9789 18.7439H24.6811L26.1553 14.6912H5.52793L7.00211 18.7439H10.7053C10.9068 18.7439 11.1001 18.8239 11.2426 18.9664C11.3851 19.109 11.4652 19.3022 11.4652 19.5038C11.4652 19.7053 11.3851 19.8986 11.2426 20.0411C11.1001 20.1836 10.9068 20.2637 10.7053 20.2637H6.47019C6.31414 20.2637 6.16188 20.2156 6.03408 20.1261C5.90629 20.0365 5.80916 19.9098 5.75589 19.7631L3.72953 14.1906C3.6881 14.0759 3.67488 13.9528 3.69099 13.8318C3.7071 13.7109 3.75207 13.5955 3.82211 13.4956C3.89214 13.3957 3.98519 13.314 4.09339 13.2576C4.2016 13.2012 4.32179 13.1716 4.44383 13.1714H27.2404C27.3626 13.1713 27.4831 13.2007 27.5915 13.2572C27.7 13.3136 27.7932 13.3953 27.8633 13.4955C27.9334 13.5956 27.9783 13.7112 27.9942 13.8324C28.0101 13.9536 27.9966 14.0768 27.9547 14.1917L25.9283 19.7642C25.8749 19.9106 25.7777 20.0371 25.6499 20.1265C25.5221 20.2159 25.37 20.2637 25.214 20.2637Z" fill="black"/>
<path d="M20.149 24.3162C20.0395 24.316 19.9313 24.2922 19.8319 24.2464C19.7324 24.2005 19.644 24.1338 19.5726 24.0507C19.5013 23.9677 19.4487 23.8702 19.4184 23.7649C19.3881 23.6597 19.3809 23.5492 19.3972 23.4409L20.2757 17.7306H11.4083L12.2867 23.4409C12.3049 23.5408 12.3029 23.6433 12.2808 23.7424C12.2587 23.8415 12.2169 23.9352 12.158 24.0179C12.0991 24.1006 12.0242 24.1706 11.9377 24.2239C11.8513 24.2772 11.755 24.3126 11.6547 24.328C11.5543 24.3434 11.4519 24.3386 11.3534 24.3138C11.2549 24.289 11.1625 24.2447 11.0814 24.1835C11.0003 24.1224 10.9324 24.0456 10.8815 23.9577C10.8306 23.8698 10.7979 23.7726 10.7852 23.6719L9.77201 17.0862C9.75536 16.9779 9.76232 16.8674 9.79239 16.762C9.82247 16.6567 9.87496 16.5591 9.94626 16.476C10.0176 16.3929 10.106 16.3261 10.2055 16.2803C10.305 16.2346 10.4132 16.2108 10.5228 16.2108H21.1612C21.2708 16.2108 21.3791 16.2346 21.4787 16.2804C21.5783 16.3262 21.6668 16.3931 21.7381 16.4763C21.8095 16.5596 21.8619 16.6573 21.8919 16.7627C21.9219 16.8682 21.9288 16.9789 21.9119 17.0872L20.8988 23.6729C20.8712 23.852 20.7804 24.0153 20.6429 24.1333C20.5054 24.2513 20.3302 24.3162 20.149 24.3162ZM26.4804 14.4377C26.2788 14.4377 26.0856 14.3577 25.9431 14.2152C25.8005 14.0727 25.7205 13.8794 25.7205 13.6779C25.715 12.6822 25.4552 11.7045 24.9656 10.8376C24.476 9.97061 23.7729 9.24321 22.9231 8.72442C22.751 8.61948 22.6276 8.45048 22.5801 8.25458C22.5326 8.05868 22.5649 7.85194 22.6698 7.67983C22.7747 7.50772 22.9437 7.38434 23.1396 7.33684C23.3355 7.28934 23.5423 7.3216 23.7144 7.42653C25.8887 8.75177 27.2392 11.1469 27.2392 13.6779C27.2394 13.7776 27.2198 13.8764 27.1818 13.9686C27.1437 14.0608 27.0878 14.1445 27.0173 14.2151C26.9469 14.2857 26.8632 14.3417 26.771 14.3799C26.6789 14.4181 26.5801 14.4377 26.4804 14.4377Z" fill="black"/>
<path d="M22.4277 9.11864C23.2671 9.11864 23.9475 8.43822 23.9475 7.59887C23.9475 6.75953 23.2671 6.0791 22.4277 6.0791C21.5884 6.0791 20.908 6.75953 20.908 7.59887C20.908 8.43822 21.5884 9.11864 22.4277 9.11864Z" fill="black"/>
<path d="M15.8421 8.10544C13.6071 8.10544 11.7894 6.2878 11.7894 4.05272C11.7894 1.81765 13.6071 0 15.8421 0C18.0772 0 19.8949 1.81765 19.8949 4.05272C19.8949 6.2878 18.0772 8.10544 15.8421 8.10544ZM15.8421 1.51977C14.445 1.51977 13.3092 2.65656 13.3092 4.05272C13.3092 5.44889 14.445 6.58567 15.8421 6.58567C17.2393 6.58567 18.3751 5.44889 18.3751 4.05272C18.3751 2.65656 17.2393 1.51977 15.8421 1.51977ZM23.441 14.6911C23.2395 14.6911 23.0462 14.6111 22.9037 14.4686C22.7612 14.326 22.6811 14.1328 22.6811 13.9312C22.68 13.0582 22.3328 12.2213 21.7155 11.604C21.0982 10.9867 20.2613 10.6395 19.3883 10.6384H12.296C11.423 10.6395 10.5861 10.9867 9.9688 11.604C9.35151 12.2213 9.00424 13.0582 9.00317 13.9312C9.00317 14.1328 8.92311 14.326 8.7806 14.4686C8.6381 14.6111 8.44482 14.6911 8.24328 14.6911C8.04175 14.6911 7.84847 14.6111 7.70596 14.4686C7.56346 14.326 7.4834 14.1328 7.4834 13.9312C7.48501 12.6553 7.99256 11.4322 8.89476 10.53C9.79695 9.62779 11.0201 9.12023 12.296 9.11863H19.3883C20.6642 9.12023 21.8873 9.62779 22.7895 10.53C23.6917 11.4322 24.1993 12.6553 24.2009 13.9312C24.2009 14.1328 24.1208 14.326 23.9783 14.4686C23.8358 14.6111 23.6425 14.6911 23.441 14.6911Z" fill="black"/>
</g>
<defs>
<clipPath id="clip0_10_688">
<rect width="28" height="28" fill="white"/>
</clipPath>
</defs>
</svg>
