<svg width="18" height="18" viewBox="0 0 18 18" fill="none" xmlns="http://www.w3.org/2000/svg">
<g id="healthicons:doctor-male">
<g id="Group">
<path id="Vector" fill-rule="evenodd" clip-rule="evenodd" d="M12.6874 5.17881C12.6874 6.47669 12.3649 8.16944 11.8687 7.91256C11.6659 8.57508 11.24 9.14696 10.6633 9.53111C10.0867 9.91525 9.39484 10.088 8.70531 10.02C8.01577 9.95193 7.37103 9.64736 6.88056 9.15794C6.39009 8.66853 6.08413 8.02445 6.01462 7.33506C5.52225 6.47369 4.8765 4.74756 6.53662 3.40206C6.56662 3.39231 6.58462 3.31131 6.61162 3.19206C6.71437 2.74094 6.942 1.73819 8.37787 1.92981C9.48525 2.07719 12.6874 2.64869 12.6874 5.17881ZM11.2601 5.99706C11.2601 5.99706 11.0906 6.49281 11.2496 7.04519C11.2476 7.63416 11.0146 8.19883 10.6009 8.61798C10.1871 9.03713 9.62547 9.27732 9.03658 9.28699C8.44769 9.29666 7.87848 9.07504 7.45117 8.66971C7.02386 8.26437 6.77252 7.70764 6.75112 7.11906C6.8055 6.91281 6.8055 6.56369 6.80512 6.17556C6.80475 5.47544 6.804 4.64931 7.12462 4.31256C9.3705 5.80844 11.2601 5.99706 11.2601 5.99706Z" fill="#3834F3"/>
<path id="Vector_2" d="M4.875 13.4999C4.875 13.0941 5.08987 12.7386 5.41237 12.5406C5.40009 12.494 5.38859 12.4471 5.37787 12.4C5.32097 12.1438 5.27654 11.885 5.24475 11.6245C5.21253 11.3749 5.19313 11.1238 5.18663 10.8723C3.60375 11.4936 2.25 12.5766 2.25 13.7136V15.7499H15.75V13.7136C15.75 12.6246 14.5087 11.5855 13.0133 10.9536V10.9641C13.02 11.1929 13.0072 11.4554 12.9825 11.7078C12.96 11.9418 12.9266 12.175 12.8865 12.3749H13.125C13.1946 12.3749 13.2629 12.3943 13.3221 12.431C13.3813 12.4676 13.4291 12.52 13.4603 12.5823L13.8353 13.3323C13.8615 13.3844 13.875 13.4418 13.875 13.4999V14.2499C13.875 14.3493 13.8355 14.4447 13.7652 14.5151C13.6948 14.5854 13.5995 14.6249 13.5 14.6249H12.75V13.8749H13.125V13.5884L12.8932 13.1249H11.8568L11.625 13.5884V13.8749H12V14.6249H11.25C11.1505 14.6249 11.0552 14.5854 10.9848 14.5151C10.9145 14.4447 10.875 14.3493 10.875 14.2499V13.4999C10.875 13.4418 10.8885 13.3844 10.9148 13.3323L11.2898 12.5823C11.3209 12.52 11.3687 12.4676 11.4279 12.431C11.4871 12.3943 11.5554 12.3749 11.625 12.3749H12.1181C12.1264 12.3426 12.1346 12.307 12.1429 12.2676C12.1804 12.091 12.2138 11.8671 12.2362 11.6358C12.2587 11.404 12.2692 11.1741 12.2636 10.9851C12.2622 10.9068 12.2561 10.8287 12.2452 10.7511C12.237 10.6979 12.2287 10.6735 12.2272 10.6683C12.2269 10.6671 12.2265 10.6668 12.2272 10.6675L12.2284 10.6671C12.0294 10.6053 11.8281 10.5512 11.625 10.5048C11.4364 10.4616 11.2414 10.7211 11.1562 10.8835H6.75C6.73905 10.8626 6.7283 10.8416 6.71775 10.8205C6.63825 10.6623 6.54038 10.4669 6.375 10.5048C6.23062 10.5374 6.08625 10.5749 5.94187 10.6161C5.93722 10.6819 5.93522 10.7478 5.93588 10.8138C5.93738 11.0211 5.95725 11.275 5.98912 11.5315C6.021 11.7873 6.06413 12.0363 6.10913 12.2328C6.12188 12.2894 6.13463 12.3404 6.14663 12.3843C6.36102 12.4125 6.56274 12.5018 6.72766 12.6417C6.89257 12.7816 7.01368 12.966 7.07649 13.1729C7.1393 13.3798 7.14115 13.6004 7.08182 13.8084C7.02248 14.0163 6.90448 14.2027 6.74193 14.3453C6.57938 14.488 6.37918 14.5807 6.16529 14.6125C5.9514 14.6442 5.73288 14.6137 5.53591 14.5245C5.33893 14.4353 5.17183 14.2912 5.05462 14.1095C4.9374 13.9278 4.87504 13.7161 4.875 13.4999Z" fill="#3834F3"/>
<path id="Vector_3" d="M6.375 13.5003C6.375 13.7155 6.20175 13.8809 6 13.8809C5.79825 13.8809 5.625 13.7159 5.625 13.5003C5.625 13.285 5.79825 13.1196 6 13.1196C6.20175 13.1196 6.375 13.2846 6.375 13.5003Z" fill="#3834F3"/>
</g>
</g>
</svg>
