<svg width="19" height="18" viewBox="0 0 19 18" fill="none" xmlns="http://www.w3.org/2000/svg">
<g id="fa6-solid:house-chimney-medical" clip-path="url(#clip0_797_4169)">
<path id="Vector" d="M18.9934 8.98362C18.9934 9.57452 18.4986 10.0374 17.9378 10.0374H16.8823L16.9054 15.2964C16.912 16.4617 15.9653 17.4072 14.7943 17.4072H4.22552C3.06111 17.4072 2.11441 16.465 2.11441 15.3062V10.0374H1.05556C0.461806 10.0374 0 9.5778 0 8.98362C0 8.68818 0.0989583 8.42555 0.329861 8.19576L8.7875 0.858812C9.0184 0.629019 9.28229 0.596191 9.51319 0.596191C9.7441 0.596191 10.008 0.661846 10.2059 0.825984L13.7222 3.90192V2.69715C13.7222 2.11611 14.1939 1.64667 14.7778 1.64667H15.8333C16.4172 1.64667 16.8889 2.11611 16.8889 2.69715V6.66928L18.6306 8.19248C18.8944 8.42227 19.0264 8.68489 18.9934 8.98034V8.98362ZM8.97222 6.89908C8.68194 6.89908 8.44444 7.13543 8.44444 7.42432V9.00004H6.86111C6.57083 9.00004 6.33333 9.23639 6.33333 9.52528V10.5758C6.33333 10.8646 6.57083 11.101 6.86111 11.101H8.44444V12.6767C8.44444 12.9656 8.68194 13.202 8.97222 13.202H10.0278C10.3181 13.202 10.5556 12.9656 10.5556 12.6767V11.101H12.1389C12.4292 11.101 12.6667 10.8646 12.6667 10.5758V9.52528C12.6667 9.23639 12.4292 9.00004 12.1389 9.00004H10.5556V7.42432C10.5556 7.13543 10.3181 6.89908 10.0278 6.89908H8.97222Z" fill="#A4A4A4"/>
</g>
<defs>
<clipPath id="clip0_797_4169">
<rect width="19" height="16.8077" fill="white" transform="translate(0 0.596191)"/>
</clipPath>
</defs>
</svg>
