<svg width="21" height="20" viewBox="0 0 21 20" fill="none" xmlns="http://www.w3.org/2000/svg">
<g id="fa6-solid:suitcase-medical" clip-path="url(#clip0_797_3450)">
<path id="Vector" d="M7.52148 1.875H13.1465C13.3184 1.875 13.459 2.01562 13.459 2.1875V3.75H7.20898V2.1875C7.20898 2.01562 7.34961 1.875 7.52148 1.875ZM5.33398 2.1875V18.75H15.334V2.1875C15.334 0.980469 14.3535 0 13.1465 0H7.52148C6.31445 0 5.33398 0.980469 5.33398 2.1875ZM4.08398 3.75H2.83398C1.45508 3.75 0.333984 4.87109 0.333984 6.25V16.25C0.333984 17.6289 1.45508 18.75 2.83398 18.75H4.08398V3.75ZM16.584 18.75H17.834C19.2129 18.75 20.334 17.6289 20.334 16.25V6.25C20.334 4.87109 19.2129 3.75 17.834 3.75H16.584V18.75ZM9.08398 8.125C9.08398 7.78125 9.36523 7.5 9.70898 7.5H10.959C11.3027 7.5 11.584 7.78125 11.584 8.125V10H13.459C13.8027 10 14.084 10.2812 14.084 10.625V11.875C14.084 12.2188 13.8027 12.5 13.459 12.5H11.584V14.375C11.584 14.7188 11.3027 15 10.959 15H9.70898C9.36523 15 9.08398 14.7188 9.08398 14.375V12.5H7.20898C6.86523 12.5 6.58398 12.2188 6.58398 11.875V10.625C6.58398 10.2812 6.86523 10 7.20898 10H9.08398V8.125Z" fill="#A4A4A4"/>
</g>
<defs>
<clipPath id="clip0_797_3450">
<rect width="20" height="20" fill="white" transform="translate(0.333984)"/>
</clipPath>
</defs>
</svg>
