<svg width="25" height="24" viewBox="0 0 25 24" fill="none" xmlns="http://www.w3.org/2000/svg">
<path d="M18.6661 7.16C18.6061 7.15 18.5361 7.15 18.4761 7.16C17.0961 7.11 15.9961 5.98 15.9961 4.58C15.9961 3.15 17.1461 2 18.5761 2C20.0061 2 21.1561 3.16 21.1561 4.58C21.1461 5.98 20.0461 7.11 18.6661 7.16Z" stroke="#A4A4A4" stroke-width="1.5" stroke-linecap="round" stroke-linejoin="round"/>
<path d="M17.6355 14.4399C19.0055 14.6699 20.5155 14.4299 21.5755 13.7199C22.9855 12.7799 22.9855 11.2399 21.5755 10.2999C20.5055 9.58992 18.9755 9.34991 17.6055 9.58991" stroke="#A4A4A4" stroke-width="1.5" stroke-linecap="round" stroke-linejoin="round"/>
<path d="M6.63453 7.16C6.69453 7.15 6.76453 7.15 6.82453 7.16C8.20453 7.11 9.30453 5.98 9.30453 4.58C9.30453 3.15 8.15453 2 6.72453 2C5.29453 2 4.14453 3.16 4.14453 4.58C4.15453 5.98 5.25453 7.11 6.63453 7.16Z" stroke="#A4A4A4" stroke-width="1.5" stroke-linecap="round" stroke-linejoin="round"/>
<path d="M7.66547 14.4399C6.29547 14.6699 4.78547 14.4299 3.72547 13.7199C2.31547 12.7799 2.31547 11.2399 3.72547 10.2999C4.79547 9.58992 6.32547 9.34991 7.69547 9.58991" stroke="#A4A4A4" stroke-width="1.5" stroke-linecap="round" stroke-linejoin="round"/>
<path d="M12.6661 14.63C12.6061 14.62 12.5361 14.62 12.4761 14.63C11.0961 14.58 9.99609 13.45 9.99609 12.05C9.99609 10.62 11.1461 9.46997 12.5761 9.46997C14.0061 9.46997 15.1561 10.63 15.1561 12.05C15.1461 13.45 14.0461 14.59 12.6661 14.63Z" stroke="#A4A4A4" stroke-width="1.5" stroke-linecap="round" stroke-linejoin="round"/>
<path d="M9.75672 17.7799C8.34672 18.7199 8.34672 20.2599 9.75672 21.1999C11.3567 22.2699 13.9767 22.2699 15.5767 21.1999C16.9867 20.2599 16.9867 18.7199 15.5767 17.7799C13.9867 16.7199 11.3567 16.7199 9.75672 17.7799Z" stroke="#A4A4A4" stroke-width="1.5" stroke-linecap="round" stroke-linejoin="round"/>
</svg>
