<svg width="25" height="24" viewBox="0 0 25 24" fill="none" xmlns="http://www.w3.org/2000/svg">
<path d="M17.863 7.77C17.793 7.76 17.723 7.76 17.653 7.77C16.103 7.72 14.873 6.45 14.873 4.89C14.873 3.3 16.163 2 17.763 2C19.353 2 20.653 3.29 20.653 4.89C20.643 6.45 19.413 7.72 17.863 7.77Z" fill="#3834F3"/>
<path d="M21.1236 14.6999C20.0036 15.4499 18.4336 15.7299 16.9836 15.5399C17.3636 14.7199 17.5636 13.8099 17.5736 12.8499C17.5736 11.8499 17.3536 10.8999 16.9336 10.0699C18.4136 9.86991 19.9836 10.1499 21.1136 10.8999C22.6936 11.9399 22.6936 13.6499 21.1236 14.6999Z" fill="#3834F3"/>
<path d="M6.77414 7.77C6.84414 7.76 6.91414 7.76 6.98414 7.77C8.53414 7.72 9.76414 6.45 9.76414 4.89C9.76414 3.29 8.47414 2 6.87414 2C5.28414 2 3.99414 3.29 3.99414 4.89C3.99414 6.45 5.22414 7.72 6.77414 7.77Z" fill="#3834F3"/>
<path d="M6.88313 12.8501C6.88313 13.8201 7.09312 14.7401 7.47312 15.5701C6.06313 15.7201 4.59313 15.4201 3.51313 14.7101C1.93313 13.6601 1.93313 11.9501 3.51313 10.9001C4.58313 10.1801 6.09312 9.8901 7.51312 10.0501C7.10313 10.8901 6.88313 11.8401 6.88313 12.8501Z" fill="#3834F3"/>
<path d="M12.4548 15.87C12.3748 15.86 12.2848 15.86 12.1948 15.87C10.3548 15.81 8.88477 14.3 8.88477 12.44C8.89477 10.54 10.4248 9 12.3348 9C14.2348 9 15.7748 10.54 15.7748 12.44C15.7648 14.3 14.3048 15.81 12.4548 15.87Z" fill="#3834F3"/>
<path d="M9.20477 17.9399C7.69477 18.9499 7.69477 20.6099 9.20477 21.6099C10.9248 22.7599 13.7448 22.7599 15.4648 21.6099C16.9748 20.5999 16.9748 18.9399 15.4648 17.9399C13.7548 16.7899 10.9348 16.7899 9.20477 17.9399Z" fill="#3834F3"/>
</svg>
