<svg width="19" height="20" viewBox="0 0 19 20" fill="none" xmlns="http://www.w3.org/2000/svg">
<g id="fa6-solid:suitcase-medical" clip-path="url(#clip0_797_4240)">
<path id="Vector" d="M6.82812 2.28125H12.1719C12.3352 2.28125 12.4688 2.41484 12.4688 2.57812V4.0625H6.53125V2.57812C6.53125 2.41484 6.66484 2.28125 6.82812 2.28125ZM4.75 2.57812V18.3125H14.25V2.57812C14.25 1.43145 13.3186 0.5 12.1719 0.5H6.82812C5.68145 0.5 4.75 1.43145 4.75 2.57812ZM3.5625 4.0625H2.375C1.06504 4.0625 0 5.12754 0 6.4375V15.9375C0 17.2475 1.06504 18.3125 2.375 18.3125H3.5625V4.0625ZM15.4375 18.3125H16.625C17.935 18.3125 19 17.2475 19 15.9375V6.4375C19 5.12754 17.935 4.0625 16.625 4.0625H15.4375V18.3125ZM8.3125 8.21875C8.3125 7.89219 8.57969 7.625 8.90625 7.625H10.0938C10.4203 7.625 10.6875 7.89219 10.6875 8.21875V10H12.4688C12.7953 10 13.0625 10.2672 13.0625 10.5938V11.7812C13.0625 12.1078 12.7953 12.375 12.4688 12.375H10.6875V14.1562C10.6875 14.4828 10.4203 14.75 10.0938 14.75H8.90625C8.57969 14.75 8.3125 14.4828 8.3125 14.1562V12.375H6.53125C6.20469 12.375 5.9375 12.1078 5.9375 11.7812V10.5938C5.9375 10.2672 6.20469 10 6.53125 10H8.3125V8.21875Z" fill="#3834F3"/>
</g>
<defs>
<clipPath id="clip0_797_4240">
<rect width="19" height="19" fill="white" transform="translate(0 0.5)"/>
</clipPath>
</defs>
</svg>
