<svg width="22" height="22" viewBox="0 0 22 22" fill="none" xmlns="http://www.w3.org/2000/svg">
<g id="Group 338">
<circle id="Ellipse 53" cx="11" cy="11" r="11" fill="#3834F3" fill-opacity="0.04"/>
<g id="Group">
<path id="Vector" d="M15.5 10.4411C15.224 10.4411 15 10.2172 15 9.94112C15 8.53862 14.454 7.22063 13.4625 6.22857C13.267 6.0331 13.267 5.71716 13.4625 5.5216C13.658 5.32613 13.974 5.32613 14.1695 5.5216C15.35 6.70208 16 8.27166 16 9.94112C16 10.2172 15.776 10.4411 15.5 10.4411ZM5.49997 10.4411C5.22404 10.4411 5 10.2172 5 9.94112C5 8.27166 5.65002 6.70208 6.83052 5.5216C7.02598 5.32613 7.34202 5.32613 7.53748 5.5216C7.73302 5.71716 7.73302 6.0331 7.53748 6.22857C6.54594 7.22012 6.00003 8.53864 6.00003 9.94112C6.00003 10.2172 5.77599 10.4411 5.49997 10.4411Z" fill="#0D41E5"/>
<path id="Vector_2" d="M12.5 15C12.5 16.1046 11.6046 17 10.5001 17C9.39548 17 8.5 16.1046 8.5 15C8.5 13.8954 9.39548 13 10.5001 13C11.6046 13 12.5 13.8954 12.5 15ZM10.5001 6.99997C10.224 6.99997 10 6.77602 10 6.5V5.49997C10 5.22404 10.224 5 10.5001 5C10.776 5 11 5.22404 11 5.49997V6.5C11 6.77602 10.776 6.99997 10.5001 6.99997Z" fill="#FFA000"/>
<path id="Vector_3" d="M15.1896 13.456C14.4335 12.8169 14 11.8834 14 10.8939V9.49997C14 7.56994 12.4295 6 10.5001 6C8.5705 6 7 7.56994 7 9.49997V10.894C7 11.8834 6.5665 12.8175 5.80607 13.4604C5.70999 13.5424 5.63287 13.6443 5.58002 13.7591C5.52718 13.8738 5.49987 13.9986 5.5 14.1249C5.5 14.6075 5.89248 15 6.37506 15H14.6251C15.1075 15 15.5 14.6075 15.5 14.1249C15.5 13.869 15.3885 13.6264 15.1896 13.456V13.456Z" fill="#FFC107"/>
</g>
</g>
</svg>
