<svg width="99" height="139" viewBox="0 0 99 139" fill="none" xmlns="http://www.w3.org/2000/svg">
    <g clip-path="url(#clip0_114_2614)">
        <path d="M95.1308 86.51C95.7437 80.1221 94.6074 73.6877 91.8438 67.896C84.5088 52.975 86.1918 51.896 85.9638 37.083C85.9736 36.3575 85.8392 35.6372 85.5683 34.9641C85.2975 34.2909 84.8956 33.6783 84.386 33.1617C83.8764 32.6452 83.2692 32.235 82.5998 31.9551C81.9303 31.6752 81.212 31.531 80.4863 31.531C79.7607 31.531 79.0424 31.6752 78.3729 31.9551C77.7035 32.235 77.0963 32.6452 76.5867 33.1617C76.0771 33.6783 75.6752 34.2909 75.4043 34.9641C75.1335 35.6372 74.999 36.3575 75.0088 37.083V92.161C75.0083 92.9984 74.9212 93.8335 74.7488 94.653V102.538C74.7454 105.733 73.4748 108.796 71.2157 111.055C68.9567 113.314 65.8937 114.585 62.6988 114.589H32.7148C37.3274 121.008 43.6369 126.015 50.9358 129.049L51.0728 129.105C55.3877 130.936 58.81 134.39 60.6018 138.721C74.4048 137.815 87.5762 132.604 98.2628 123.821L94.1808 108.821C93.5981 106.678 93.3927 104.45 93.5738 102.236L95.1308 86.51Z" fill="#F9CFA9"/>
        <path d="M12.3689 31.796L10.6999 30.25C10.0866 29.6767 9.36613 29.2303 8.57982 28.9362C7.79352 28.6421 6.95687 28.5062 6.11792 28.5364C5.27896 28.5665 4.45421 28.762 3.69103 29.1117C2.92784 29.4614 2.24124 29.9584 1.67064 30.5742C1.10004 31.19 0.656676 31.9124 0.366006 32.7C0.0753365 33.4875 -0.0569181 34.3247 -0.0231653 35.1636C0.0105875 36.0024 0.209683 36.8263 0.562692 37.5879C0.915701 38.3496 1.41567 39.0341 2.0339 39.602L12.3679 49.178L12.3689 31.796Z" fill="#F9CFA9"/>
        <path d="M67.1558 0H20.3138C18.1283 0.00264688 16.033 0.87209 14.4877 2.4176C12.9424 3.9631 12.0732 6.05846 12.0708 8.244V106.968C12.0732 109.154 12.9424 111.249 14.4877 112.794C16.033 114.34 18.1283 115.209 20.3138 115.212H67.1558C69.3414 115.209 71.4368 114.34 72.9823 112.794C74.5277 111.249 75.3971 109.154 75.3998 106.968V8.244C75.3971 6.05837 74.5277 3.96301 72.9823 2.41753C71.4368 0.872058 69.3414 0.00264637 67.1558 0Z" fill="#6090CF"/>
        <path d="M27.9438 6.113C27.6067 5.61072 27.3832 5.04103 27.2886 4.44357C27.1941 3.84611 27.2309 3.23523 27.3964 2.65342C27.5619 2.07161 27.8522 1.53285 28.247 1.07461C28.6419 0.616372 29.1318 0.249665 29.6828 0L20.3148 0C18.1284 0 16.0315 0.868562 14.4854 2.41461C12.9394 3.96066 12.0708 6.05756 12.0708 8.244V106.968C12.0711 109.154 12.9397 111.251 14.4858 112.797C16.0318 114.343 18.1285 115.211 20.3148 115.211H30.2738V13.338C30.2344 10.7513 29.423 8.23538 27.9438 6.113Z" fill="#595BB5"/>
        <path d="M16.844 52.071V106.971C16.844 107.892 17.2097 108.775 17.8606 109.426C18.5115 110.077 19.3943 110.443 20.315 110.443H67.161C68.0816 110.443 68.9645 110.077 69.6154 109.426C70.2663 108.775 70.632 107.892 70.632 106.971V52.071H16.844Z" fill="#E6F7FE"/>
        <path d="M16.844 52.071V106.971C16.844 107.892 17.2097 108.775 17.8606 109.426C18.5115 110.077 19.3943 110.443 20.315 110.443H28.526V52.071H16.844Z" fill="#D5F1FE"/>
        <path d="M35.7119 68.631C35.7117 69.7065 35.3926 70.7578 34.795 71.6519C34.1973 72.5461 33.348 73.2429 32.3543 73.6544C31.3606 74.0658 30.2672 74.1733 29.2124 73.9634C28.1576 73.7535 27.1888 73.2355 26.4283 72.4749C25.6679 71.7143 25.1501 70.7454 24.9404 69.6906C24.7306 68.6357 24.8384 67.5424 25.25 66.5488C25.6616 65.5551 26.3586 64.7059 27.2529 64.1084C28.1471 63.5109 29.1984 63.192 30.2739 63.192C30.9882 63.192 31.6954 63.3327 32.3552 63.606C33.015 63.8794 33.6146 64.2801 34.1195 64.7851C34.6245 65.2902 35.0251 65.8898 35.2983 66.5497C35.5715 67.2096 35.7121 67.9168 35.7119 68.631Z" fill="#6090CF"/>
        <path d="M35.7119 88.798C35.7117 89.8735 35.3926 90.9248 34.795 91.8189C34.1973 92.7131 33.348 93.4099 32.3543 93.8214C31.3606 94.2328 30.2672 94.3403 29.2124 94.1304C28.1576 93.9205 27.1888 93.4025 26.4283 92.6419C25.6679 91.8813 25.1501 90.9124 24.9404 89.8575C24.7306 88.8027 24.8384 87.7094 25.25 86.7158C25.6616 85.7222 26.3586 84.8729 27.2529 84.2754C28.1471 83.6779 29.1984 83.359 30.2739 83.359C31.7163 83.3593 33.0995 83.9324 34.1192 84.9524C35.139 85.9724 35.7119 87.3557 35.7119 88.798Z" fill="#6090CF"/>
        <path d="M29.662 63.228C28.7558 63.3309 27.8901 63.6601 27.1444 64.1852C26.3988 64.7103 25.7972 65.4145 25.395 66.233C24.9928 67.0515 24.803 67.9581 24.8429 68.8692C24.8828 69.7803 25.1511 70.6667 25.6234 71.4469C26.0956 72.2272 26.7564 72.8761 27.5451 73.334C28.3338 73.7919 29.225 74.0442 30.1367 74.0675C31.0484 74.0908 31.9513 73.8844 32.7623 73.4674C33.5734 73.0504 34.2665 72.4361 34.778 71.681C33.7452 71.7966 32.7009 71.6141 31.7686 71.1551C30.8363 70.696 30.0548 69.9796 29.5168 69.0905C28.9787 68.2015 28.7064 67.1769 28.7321 66.138C28.7579 65.0991 29.0805 64.0893 29.662 63.228Z" fill="#595BB5"/>
        <path d="M29.662 83.396C28.7558 83.4989 27.8901 83.8281 27.1444 84.3532C26.3988 84.8783 25.7972 85.5825 25.395 86.401C24.9928 87.2195 24.803 88.1261 24.8429 89.0372C24.8828 89.9483 25.1511 90.8347 25.6234 91.615C26.0956 92.3952 26.7564 93.0441 27.5451 93.502C28.3338 93.96 29.225 94.2122 30.1367 94.2355C31.0484 94.2588 31.9513 94.0524 32.7623 93.6354C33.5734 93.2184 34.2665 92.6041 34.778 91.849C33.7452 91.9646 32.7009 91.7821 31.7686 91.3231C30.8363 90.864 30.0548 90.1476 29.5168 89.2585C28.9787 88.3695 28.7064 87.345 28.7321 86.3061C28.7579 85.2672 29.0805 84.2573 29.662 83.396Z" fill="#595BB5"/>
        <path d="M52.4989 66.37H44.7769C44.2375 66.37 43.7201 66.1557 43.3387 65.7743C42.9572 65.3928 42.7429 64.8754 42.7429 64.336C42.7429 63.7965 42.9572 63.2792 43.3387 62.8978C43.7201 62.5163 44.2375 62.302 44.7769 62.302H52.4989C53.0384 62.302 53.5557 62.5163 53.9372 62.8978C54.3186 63.2792 54.5329 63.7965 54.5329 64.336C54.5329 64.8754 54.3186 65.3928 53.9372 65.7743C53.5557 66.1557 53.0384 66.37 52.4989 66.37Z" fill="#595BB5"/>
        <path d="M60.2209 74.96H44.7779C44.2383 74.96 43.7208 74.7456 43.3393 74.3641C42.9578 73.9826 42.7434 73.4651 42.7434 72.9255C42.7434 72.3859 42.9578 71.8684 43.3393 71.4869C43.7208 71.1053 44.2383 70.891 44.7779 70.891H60.2209C60.7605 70.891 61.278 71.1053 61.6595 71.4869C62.0411 71.8684 62.2554 72.3859 62.2554 72.9255C62.2554 73.4651 62.0411 73.9826 61.6595 74.3641C61.278 74.7456 60.7605 74.96 60.2209 74.96Z" fill="#595BB5"/>
        <path d="M52.4989 86.536H44.7769C44.2375 86.536 43.7201 86.3217 43.3387 85.9402C42.9572 85.5588 42.7429 85.0414 42.7429 84.502C42.7429 83.9625 42.9572 83.4452 43.3387 83.0637C43.7201 82.6823 44.2375 82.468 44.7769 82.468H52.4989C53.0384 82.468 53.5557 82.6823 53.9372 83.0637C54.3186 83.4452 54.5329 83.9625 54.5329 84.502C54.5329 85.0414 54.3186 85.5588 53.9372 85.9402C53.5557 86.3217 53.0384 86.536 52.4989 86.536Z" fill="#595BB5"/>
        <path d="M60.2209 95.126H44.7779C44.2383 95.126 43.7208 94.9116 43.3393 94.5301C42.9578 94.1485 42.7434 93.6311 42.7434 93.0915C42.7434 92.5519 42.9578 92.0344 43.3393 91.6529C43.7208 91.2714 44.2383 91.057 44.7779 91.057H60.2209C60.7605 91.057 61.278 91.2714 61.6595 91.6529C62.0411 92.0344 62.2554 92.5519 62.2554 93.0915C62.2554 93.6311 62.0411 94.1485 61.6595 94.5301C61.278 94.9116 60.7605 95.126 60.2209 95.126Z" fill="#595BB5"/>
        <path opacity="0.5" d="M60.1709 4.77499C60.0148 4.77486 59.8602 4.80549 59.716 4.86514C59.5717 4.92478 59.4406 5.01227 59.3302 5.1226C59.2198 5.23293 59.1322 5.36394 59.0724 5.50814C59.0127 5.65234 58.9819 5.8069 58.9819 5.96299C58.9798 6.72175 58.6775 7.44885 58.1411 7.98546C57.6047 8.52208 56.8777 8.82462 56.1189 8.82699H31.3029C30.544 8.82488 29.8167 8.52246 29.2801 7.98582C28.7434 7.44917 28.441 6.72193 28.4389 5.96299C28.4389 5.8069 28.4082 5.65234 28.3484 5.50814C28.2886 5.36394 28.201 5.23293 28.0906 5.1226C27.9802 5.01227 27.8491 4.92478 27.7048 4.86514C27.5606 4.80549 27.406 4.77486 27.2499 4.77499H20.2879C19.3673 4.77499 18.4843 5.14066 17.8332 5.79157C17.1821 6.44248 16.8162 7.32533 16.8159 8.24599V52.613H70.6079V8.24399L60.1709 4.77499Z" fill="#595BB5"/>
        <path opacity="0.35" d="M28.5259 6.64701C28.469 6.4231 28.4397 6.19305 28.4389 5.96201C28.439 5.80583 28.4084 5.65116 28.3487 5.50684C28.289 5.36253 28.2014 5.2314 28.091 5.12097C27.9805 5.01053 27.8494 4.92296 27.7051 4.86325C27.5608 4.80354 27.4061 4.77288 27.2499 4.77301H20.2879C19.3673 4.77301 18.4843 5.13867 17.8332 5.78958C17.1821 6.44049 16.8162 7.32335 16.8159 8.24401V52.613H28.5259V6.64701Z" fill="#6090CF"/>
        <path d="M67.1339 4.77601H60.1719C59.8571 4.77575 59.5552 4.90038 59.3322 5.12255C59.1093 5.34473 58.9837 5.64628 58.9829 5.96101C58.9808 6.71977 58.6785 7.44686 58.142 7.98348C57.6056 8.5201 56.8786 8.82264 56.1199 8.82501H42.4329L70.6059 44.14V8.24001C70.6056 7.31935 70.2397 6.43649 69.5886 5.78558C68.9375 5.13467 68.0545 4.76901 67.1339 4.76901V4.77601Z" fill="#595BB5"/>
        <path d="M34.9638 20.942H25.5828C25.0433 20.942 24.5258 20.7276 24.1442 20.3461C23.7627 19.9645 23.5483 19.4471 23.5483 18.9075C23.5483 18.3679 23.7627 17.8504 24.1442 17.4689C24.5258 17.0873 25.0433 16.873 25.5828 16.873H34.9638C35.5034 16.873 36.0209 17.0873 36.4025 17.4689C36.784 17.8504 36.9983 18.3679 36.9983 18.9075C36.9983 19.4471 36.784 19.9645 36.4025 20.3461C36.0209 20.7276 35.5034 20.942 34.9638 20.942Z" fill="#595BB5"/>
        <path d="M21.6458 65.419C20.6386 66.5053 19.2413 67.1472 17.7609 67.2035C16.2806 67.2597 14.8385 66.7258 13.7518 65.719L4.39481 57.049C3.30742 56.0421 2.66456 54.6445 2.60764 53.1636C2.55073 51.6827 3.08442 50.2399 4.09131 49.1525C5.09821 48.0651 6.49582 47.4223 7.9767 47.3653C9.45758 47.3084 10.9004 47.8421 11.9878 48.849L21.3448 57.519C21.8837 58.0177 22.3189 58.6178 22.6257 59.2848C22.9325 59.9519 23.1048 60.6729 23.1328 61.4066C23.1607 62.1403 23.0438 62.8723 22.7887 63.5608C22.5335 64.2493 22.1452 64.8807 21.6458 65.419Z" fill="#F9CFA9"/>
        <path d="M21.3459 57.524L16.8979 53.401C17.2 54.4803 17.2204 55.6189 16.9572 56.7083C16.6941 57.7977 16.1561 58.8015 15.3948 59.6238C14.6334 60.4462 13.6739 61.0597 12.608 61.4059C11.542 61.752 10.4052 61.8192 9.30591 61.601L13.7559 65.725C14.8433 66.7319 16.2861 67.2656 17.767 67.2087C19.2479 67.1518 20.6455 66.5089 21.6524 65.4215C22.6593 64.3341 23.193 62.8913 23.1361 61.4104C23.0792 59.9295 22.4363 58.5319 21.3489 57.525L21.3459 57.524Z" fill="#FBBC8D"/>
        <path d="M21.6458 80.655C20.6388 81.7416 19.2414 82.3836 17.761 82.4399C16.2806 82.4961 14.8384 81.962 13.7518 80.955L4.39483 72.285C3.83711 71.7917 3.38364 71.1918 3.06109 70.5207C2.73854 69.8496 2.55342 69.1208 2.5166 68.3771C2.47978 67.6335 2.59201 66.8899 2.8467 66.1903C3.10138 65.4906 3.49338 64.8489 3.99964 64.3029C4.5059 63.7569 5.11621 63.3176 5.79469 63.0109C6.47317 62.7042 7.20613 62.5362 7.95046 62.5168C8.6948 62.4974 9.4355 62.6271 10.129 62.8981C10.8225 63.1691 11.4549 63.5761 11.9888 64.095L21.3458 72.765C22.4312 73.7719 23.0725 75.1685 23.1287 76.6479C23.185 78.1273 22.6516 79.5686 21.6458 80.655Z" fill="#F9CFA9"/>
        <path d="M21.6458 95.891C20.6388 96.9776 19.2413 97.6196 17.7609 97.6759C16.2805 97.7321 14.8384 97.198 13.7518 96.191L4.39481 87.521C3.30742 86.5141 2.66456 85.1165 2.60764 83.6356C2.55073 82.1547 3.08442 80.7119 4.09131 79.6245C5.09821 78.5371 6.49582 77.8943 7.9767 77.8373C9.45758 77.7804 10.9004 78.3141 11.9878 79.321L21.3448 87.991C21.8837 88.4897 22.3189 89.0898 22.6257 89.7568C22.9325 90.4239 23.1048 91.1449 23.1328 91.8786C23.1607 92.6123 23.0438 93.3443 22.7887 94.0328C22.5335 94.7213 22.1452 95.3527 21.6458 95.891Z" fill="#F9CFA9"/>
        <path d="M94.1799 108.821C93.8914 107.757 93.6946 106.671 93.5918 105.574C88.6115 113.765 81.1231 120.133 72.2379 123.732C63.3526 127.331 53.5438 127.969 44.2668 125.553C46.3821 126.913 48.6139 128.082 50.9359 129.047L51.0728 129.104C55.3881 130.935 58.8106 134.388 60.6019 138.72C74.4048 137.814 87.5762 132.603 98.2628 123.82L94.1799 108.821Z" fill="#FBBC8D"/>
        <path d="M21.3459 72.761L16.8979 68.638C17.2 69.7173 17.2204 70.8559 16.9572 71.9453C16.6941 73.0347 16.1561 74.0385 15.3948 74.8608C14.6334 75.6832 13.6739 76.2967 12.608 76.6429C11.542 76.989 10.4052 77.0562 9.30591 76.838L13.7559 80.961C14.846 81.9469 16.2807 82.4634 17.7491 82.3986C19.2174 82.3338 20.6011 81.6929 21.6001 80.6148C22.5991 79.5367 23.133 78.1084 23.0859 76.6393C23.0389 75.1703 22.4148 73.779 21.3489 72.767L21.3459 72.761Z" fill="#FBBC8D"/>
        <path d="M21.3459 87.997L16.8979 83.874C17.2 84.9532 17.2204 86.0919 16.9572 87.1813C16.6941 88.2707 16.1561 89.2745 15.3948 90.0968C14.6334 90.9192 13.6739 91.5327 12.608 91.8789C11.542 92.225 10.4052 92.2922 9.30591 92.074L13.7559 96.198C14.2943 96.6966 14.9257 97.0842 15.6139 97.3388C16.3021 97.5933 17.0338 97.7099 17.767 97.6817C18.5003 97.6535 19.2208 97.4812 19.8875 97.1745C20.5541 96.8679 21.1538 96.4329 21.6524 95.8945C22.151 95.3561 22.5386 94.7247 22.7932 94.0365C23.0477 93.3483 23.1643 92.6167 23.1361 91.8834C23.1079 91.1501 22.9356 90.4296 22.6289 89.763C22.3223 89.0963 21.8873 88.4966 21.3489 87.998L21.3459 87.997Z" fill="#FBBC8D"/>
    </g>
    <defs>
        <clipPath id="clip0_114_2614">
            <rect width="98.263" height="138.72" fill="white"/>
        </clipPath>
    </defs>
</svg>